<svg xmlns="http://www.w3.org/2000/svg" viewBox="0 0 1280 900" font-family="Helvetica, Arial, sans-serif">
<defs>
<marker id="ar-blue" markerWidth="10" markerHeight="8" refX="8" refY="4" orient="auto" markerUnits="userSpaceOnUse"><path d="M0,0 L9,4 L0,8 Z" fill="#2563eb"/></marker>
<marker id="ar-green" markerWidth="10" markerHeight="8" refX="8" refY="4" orient="auto" markerUnits="userSpaceOnUse"><path d="M0,0 L9,4 L0,8 Z" fill="#059669"/></marker>
<marker id="ar-purple" markerWidth="10" markerHeight="8" refX="8" refY="4" orient="auto" markerUnits="userSpaceOnUse"><path d="M0,0 L9,4 L0,8 Z" fill="#7c3aed"/></marker>
<marker id="ar-orange" markerWidth="10" markerHeight="8" refX="8" refY="4" orient="auto" markerUnits="userSpaceOnUse"><path d="M0,0 L9,4 L0,8 Z" fill="#ea580c"/></marker>
<marker id="ar-indigo" markerWidth="10" markerHeight="8" refX="8" refY="4" orient="auto" markerUnits="userSpaceOnUse"><path d="M0,0 L9,4 L0,8 Z" fill="#4f46e5"/></marker>
<marker id="ar-red" markerWidth="10" markerHeight="8" refX="8" refY="4" orient="auto" markerUnits="userSpaceOnUse"><path d="M0,0 L9,4 L0,8 Z" fill="#dc2626"/></marker>
<filter id="sh" x="-20%" y="-20%" width="140%" height="140%"><feDropShadow dx="0" dy="1.5" stdDeviation="1.5" flood-color="#0f172a" flood-opacity="0.12"/></filter>
</defs>
<rect x="0" y="0" width="1280" height="900" fill="#ffffff"/>
<text x="640.0" y="40" text-anchor="middle" font-size="23" font-weight="700" fill="#0f172a">SPIFFE / SPIRE Zero-Trust Demo &#8212; mTLS Mesh + Workload Federation</text>
<text x="640.0" y="64" text-anchor="middle" font-size="13" fill="#64748b">Azure VM  |  Docker Compose  |  trust domain: ethandemo.com  |  public host: spiffe.ethandemo.com</text>
<rect x="40" y="250" width="1200" height="630" rx="14" fill="#fbfcfe" stroke="#cbd5e1" stroke-width="1.5" stroke-dasharray="8,5"/>
<text x="60" y="276" font-size="13" font-weight="700" fill="#94a3b8">Azure VM  &#183;  Docker Compose network</text>
<rect x="95" y="580" width="470" height="150" rx="10" fill="#f1f5f9" stroke="#94a3b8" stroke-width="1.3" stroke-dasharray="6,4"/>
<text x="112" y="602" font-size="12" font-weight="700" fill="#64748b">open-webui netns  (app=openwebui)</text>
<rect x="715" y="580" width="470" height="150" rx="10" fill="#f1f5f9" stroke="#94a3b8" stroke-width="1.3" stroke-dasharray="6,4"/>
<text x="732" y="602" font-size="12" font-weight="700" fill="#64748b">mcp-server netns  (app=mcp-server)</text>
<rect x="60" y="90" width="175" height="56" rx="9" fill="#f1f5f9" stroke="#475569" stroke-width="1.8" filter="url(#sh)"/>
<text x="147.5" y="116" text-anchor="middle" font-size="14.5" font-weight="700" fill="#0f172a">Human User</text>
<text x="147.5" y="135" text-anchor="middle" font-size="11.5" fill="#475569">Browser</text>
<rect x="1015" y="90" width="205" height="56" rx="9" fill="#cffafe" stroke="#0891b2" stroke-width="1.8" filter="url(#sh)"/>
<text x="1117.5" y="116" text-anchor="middle" font-size="14.5" font-weight="700" fill="#0f172a">Microsoft Entra ID</text>
<text x="1117.5" y="135" text-anchor="middle" font-size="11.5" fill="#475569">OIDC SSO + Federation</text>
<rect x="1015" y="168" width="205" height="56" rx="9" fill="#cffafe" stroke="#0891b2" stroke-width="1.8" filter="url(#sh)"/>
<text x="1117.5" y="194" text-anchor="middle" font-size="14.5" font-weight="700" fill="#0f172a">Azure Key Vault</text>
<text x="1117.5" y="213" text-anchor="middle" font-size="11.5" fill="#475569">Step B: secret store</text>
<rect x="95" y="298" width="240" height="70" rx="9" fill="#fef3c7" stroke="#d97706" stroke-width="1.8" filter="url(#sh)"/>
<text x="215.0" y="324" text-anchor="middle" font-size="14.5" font-weight="700" fill="#0f172a">Caddy</text>
<text x="215.0" y="343" text-anchor="middle" font-size="11.5" fill="#475569">Public TLS :80/:443</text>
<text x="215.0" y="359" text-anchor="middle" font-size="11.5" fill="#475569">SSO proxy + JWKS at /keys</text>
<rect x="430" y="298" width="250" height="70" rx="9" fill="#ede9fe" stroke="#7c3aed" stroke-width="1.8" filter="url(#sh)"/>
<text x="555.0" y="324" text-anchor="middle" font-size="14.5" font-weight="700" fill="#0f172a">OIDC Discovery Provider</text>
<text x="555.0" y="343" text-anchor="middle" font-size="11.5" fill="#475569">publishes SPIRE JWKS</text>
<rect x="95" y="430" width="240" height="78" rx="9" fill="#ede9fe" stroke="#7c3aed" stroke-width="1.8" filter="url(#sh)"/>
<text x="215.0" y="456" text-anchor="middle" font-size="14.5" font-weight="700" fill="#0f172a">SPIRE Server</text>
<text x="215.0" y="475" text-anchor="middle" font-size="11.5" fill="#475569">issues X.509 / JWT SVIDs</text>
<text x="215.0" y="491" text-anchor="middle" font-size="11.5" fill="#475569">mints node join token</text>
<rect x="430" y="430" width="250" height="78" rx="9" fill="#ede9fe" stroke="#7c3aed" stroke-width="1.8" filter="url(#sh)"/>
<text x="555.0" y="456" text-anchor="middle" font-size="14.5" font-weight="700" fill="#0f172a">SPIRE Agent</text>
<text x="555.0" y="475" text-anchor="middle" font-size="11.5" fill="#475569">docker workload attestor</text>
<text x="555.0" y="491" text-anchor="middle" font-size="11.5" fill="#475569">SDS over UDS socket</text>
<rect x="115" y="622" width="195" height="85" rx="9" fill="#dbeafe" stroke="#2563eb" stroke-width="1.8" filter="url(#sh)"/>
<text x="212.5" y="648" text-anchor="middle" font-size="14.5" font-weight="700" fill="#0f172a">Open WebUI</text>
<text x="212.5" y="667" text-anchor="middle" font-size="11.5" fill="#475569">AI Agent</text>
<text x="212.5" y="683" text-anchor="middle" font-size="11.5" fill="#475569">Entra SSO login</text>
<rect x="350" y="622" width="195" height="85" rx="9" fill="#dcfce7" stroke="#059669" stroke-width="1.8" filter="url(#sh)"/>
<text x="447.5" y="648" text-anchor="middle" font-size="14.5" font-weight="700" fill="#0f172a">envoy-client</text>
<text x="447.5" y="667" text-anchor="middle" font-size="11.5" fill="#475569">sidecar</text>
<text x="447.5" y="683" text-anchor="middle" font-size="11.5" fill="#475569">SVID: /agent</text>
<rect x="735" y="622" width="195" height="85" rx="9" fill="#dcfce7" stroke="#059669" stroke-width="1.8" filter="url(#sh)"/>
<text x="832.5" y="648" text-anchor="middle" font-size="14.5" font-weight="700" fill="#0f172a">envoy-server</text>
<text x="832.5" y="667" text-anchor="middle" font-size="11.5" fill="#475569">sidecar</text>
<text x="832.5" y="683" text-anchor="middle" font-size="11.5" fill="#475569">SVID: /mcp-server</text>
<rect x="970" y="622" width="195" height="85" rx="9" fill="#dbeafe" stroke="#2563eb" stroke-width="1.8" filter="url(#sh)"/>
<text x="1067.5" y="648" text-anchor="middle" font-size="14.5" font-weight="700" fill="#0f172a">MCP Server</text>
<text x="1067.5" y="667" text-anchor="middle" font-size="11.5" fill="#475569">FastMCP + SQLite</text>
<text x="1067.5" y="683" text-anchor="middle" font-size="11.5" fill="#475569">127.0.0.1:8000</text>
<rect x="970" y="788" width="215" height="72" rx="9" fill="#fee2e2" stroke="#dc2626" stroke-width="1.8" filter="url(#sh)"/>
<text x="1077.5" y="814" text-anchor="middle" font-size="14.5" font-weight="700" fill="#b91c1c">hacker</text>
<text x="1077.5" y="833" text-anchor="middle" font-size="11.5" fill="#475569">no sidecar / no SVID</text>
<path d="M147,146 L147,232 L215,232 L215,298" fill="none" stroke="#2563eb" stroke-width="2" marker-end="url(#ar-blue)"/>
<rect x="117" y="208" width="67.60000000000001" height="16" fill="#ffffff" opacity="0.92" rx="2"/>
<text x="120" y="218" text-anchor="start" font-size="11" font-weight="600" fill="#1d4ed8">HTTPS :443</text>
<path d="M95,333 L70,333 L70,664 L115,664" fill="none" stroke="#2563eb" stroke-width="2" marker-end="url(#ar-blue)"/>
<rect x="51.599999999999994" y="382" width="36.800000000000004" height="16" fill="#ffffff" opacity="0.92" rx="2"/>
<text x="70" y="392" text-anchor="middle" font-size="11" font-weight="600" fill="#1d4ed8">proxy</text>
<path d="M310,664 L350,664" fill="none" stroke="#2563eb" stroke-width="2" marker-end="url(#ar-blue)"/>
<rect x="296.2" y="641" width="67.60000000000001" height="15" fill="#ffffff" opacity="0.92" rx="2"/>
<text x="330" y="650" text-anchor="middle" font-size="10" font-weight="600" fill="#1d4ed8">HTTP :10000</text>
<path d="M545,664 L735,664" fill="none" stroke="#059669" stroke-width="4" marker-end="url(#ar-green)"/>
<rect x="579.88" y="641" width="120.24000000000001" height="17" fill="#ffffff" opacity="0.92" rx="2"/>
<text x="640" y="652" text-anchor="middle" font-size="12" font-weight="600" fill="#047857">mTLS (X.509-SVID)</text>
<rect x="606.2" y="673" width="67.60000000000001" height="15" fill="#ffffff" opacity="0.92" rx="2"/>
<text x="640" y="682" text-anchor="middle" font-size="10" font-weight="600" fill="#64748b">SAN pinning</text>
<path d="M930,664 L970,664" fill="none" stroke="#2563eb" stroke-width="2" marker-end="url(#ar-blue)"/>
<rect x="896.46" y="641.5" width="107.08000000000001" height="14.5" fill="#ffffff" opacity="0.92" rx="2"/>
<text x="950" y="650" text-anchor="middle" font-size="9.5" font-weight="600" fill="#1d4ed8">HTTP 127.0.0.1:8000</text>
<path d="M335,469 L430,469" fill="none" stroke="#7c3aed" stroke-width="1.8" marker-end="url(#ar-purple)"/>
<rect x="348.2" y="452" width="67.60000000000001" height="15" fill="#ffffff" opacity="0.92" rx="2"/>
<text x="382" y="461" text-anchor="middle" font-size="10" font-weight="600" fill="#6d28d9">attestation</text>
<rect x="347.08" y="472.5" width="69.84" height="14.5" fill="#ffffff" opacity="0.92" rx="2"/>
<text x="382" y="481" text-anchor="middle" font-size="9.5" font-weight="600" fill="#8b5cf6">(join token)</text>
<path d="M498,508 L498,560 L447,560 L447,622" fill="none" stroke="#059669" stroke-width="1.8" stroke-dasharray="6,4" marker-end="url(#ar-green)"/>
<rect x="441.8" y="587" width="56.400000000000006" height="15" fill="#ffffff" opacity="0.92" rx="2"/>
<text x="470" y="596" text-anchor="middle" font-size="10" font-weight="600" fill="#047857">SDS: SVID</text>
<path d="M612,508 L612,560 L832,560 L832,622" fill="none" stroke="#059669" stroke-width="1.8" stroke-dasharray="6,4" marker-end="url(#ar-green)"/>
<rect x="701.8" y="543" width="56.400000000000006" height="15" fill="#ffffff" opacity="0.92" rx="2"/>
<text x="730" y="552" text-anchor="middle" font-size="10" font-weight="600" fill="#047857">SDS: SVID</text>
<path d="M555,430 L555,368" fill="none" stroke="#059669" stroke-width="1.8" stroke-dasharray="6,4" marker-end="url(#ar-green)"/>
<rect x="581.4" y="383" width="73.2" height="15" fill="#ffffff" opacity="0.92" rx="2"/>
<text x="618" y="392" text-anchor="middle" font-size="10" font-weight="600" fill="#047857">Workload API</text>
<rect x="583.08" y="399.5" width="69.84" height="14.5" fill="#ffffff" opacity="0.92" rx="2"/>
<text x="618" y="408" text-anchor="middle" font-size="9.5" font-weight="600" fill="#059669">(JWT bundle)</text>
<path d="M430,333 L335,333" fill="none" stroke="#ea580c" stroke-width="1.8" stroke-dasharray="6,4" marker-end="url(#ar-orange)"/>
<rect x="351.0" y="317" width="62.00000000000001" height="15" fill="#ffffff" opacity="0.92" rx="2"/>
<text x="382" y="326" text-anchor="middle" font-size="10" font-weight="600" fill="#c2410c">JWKS (UDS)</text>
<path d="M115,664 L55,664 L55,210 L990,210 L990,118 L1015,118" fill="none" stroke="#ea580c" stroke-width="1.8" stroke-dasharray="6,4" marker-end="url(#ar-orange)"/>
<rect x="513.88" y="193" width="92.24000000000001" height="16" fill="#ffffff" opacity="0.92" rx="2"/>
<text x="560" y="203" text-anchor="middle" font-size="11" font-weight="600" fill="#c2410c">Entra OIDC SSO</text>
<path d="M680,469 L1235,469 L1235,118 L1220,118" fill="none" stroke="#4f46e5" stroke-width="1.8" stroke-dasharray="6,4" marker-end="url(#ar-indigo)"/>
<rect x="852.94" y="452.5" width="294.12" height="15.5" fill="#ffffff" opacity="0.92" rx="2"/>
<text x="1000" y="462" text-anchor="middle" font-size="10.5" font-weight="600" fill="#4338ca">JWT-SVID -&gt; Entra token  (Step B, zero secret)</text>
<path d="M1117,146 L1117,168" fill="none" stroke="#4f46e5" stroke-width="1.8" stroke-dasharray="6,4" marker-end="url(#ar-indigo)"/>
<text x="1128" y="162" text-anchor="start" font-size="9.5" font-weight="600" fill="#4338ca">read secret</text>
<path d="M1077,788 L1077,748 L900,748 L900,730" fill="none" stroke="#dc2626" stroke-width="1.8" stroke-dasharray="6,4" marker-end="url(#ar-red)"/>
<line x1="940" y1="736" x2="954" y2="750" stroke="#dc2626" stroke-width="2.6"/>
<line x1="954" y1="736" x2="940" y2="750" stroke="#dc2626" stroke-width="2.6"/>
<rect x="957.02" y="762.5" width="105.96000000000001" height="15.5" fill="#ffffff" opacity="0.92" rx="2"/>
<text x="1010" y="772" text-anchor="middle" font-size="10.5" font-weight="600" fill="#b91c1c">no SVID: REJECTED</text>
<rect x="95" y="792" width="775" height="72" rx="8" fill="#f8fafc" stroke="#e2e8f0" stroke-width="1.2"/>
<text x="112" y="812" font-size="12.5" font-weight="700" fill="#334155">Legend</text>
<line x1="112" y1="832" x2="140" y2="832" stroke="#2563eb" stroke-width="2"/>
<text x="146" y="836" font-size="11" fill="#475569">Request / HTTP</text>
<line x1="300" y1="832" x2="328" y2="832" stroke="#059669" stroke-width="4"/>
<text x="334" y="836" font-size="11" fill="#475569">mTLS (X.509-SVID)</text>
<line x1="520" y1="832" x2="548" y2="832" stroke="#059669" stroke-width="2" stroke-dasharray="6,4"/>
<text x="554" y="836" font-size="11" fill="#475569">SDS / Workload API</text>
<line x1="710" y1="832" x2="738" y2="832" stroke="#7c3aed" stroke-width="2"/>
<text x="744" y="836" font-size="11" fill="#475569">Node attestation</text>
<line x1="112" y1="856" x2="140" y2="856" stroke="#ea580c" stroke-width="2" stroke-dasharray="6,4"/>
<text x="146" y="860" font-size="11" fill="#475569">OIDC SSO / JWKS</text>
<line x1="300" y1="856" x2="328" y2="856" stroke="#4f46e5" stroke-width="2" stroke-dasharray="6,4"/>
<text x="334" y="860" font-size="11" fill="#475569">Federation (Step B)</text>
<line x1="520" y1="856" x2="548" y2="856" stroke="#dc2626" stroke-width="2" stroke-dasharray="6,4"/>
<text x="554" y="860" font-size="11" fill="#475569">Blocked (no SVID)</text>
</svg>